<svg width="25" height="24" viewBox="0 0 25 24" fill="none" xmlns="http://www.w3.org/2000/svg">
<g clip-path="url(#clip0_3_55507)">
<path d="M24.6668 12.0735C24.6668 5.40447 19.2938 -0.00152588 12.6668 -0.00152588C6.03682 -2.58789e-05 0.663818 5.40448 0.663818 12.075C0.663818 18.1005 5.05282 23.0955 10.7888 24.0015V15.564H7.74382V12.075H10.7918V9.41247C10.7918 6.38697 12.5843 4.71597 15.3248 4.71597C16.6388 4.71597 18.0113 4.95147 18.0113 4.95147V7.92147H16.4978C15.0083 7.92147 14.5433 8.85297 14.5433 9.80847V12.0735H17.8703L17.3393 15.5625H14.5418V24C20.2778 23.094 24.6668 18.099 24.6668 12.0735Z" fill="#059BE5"/>
</g>
<defs>
<clipPath id="clip0_3_55507">
<rect x="0.666748" width="24" height="24" rx="12" fill="white"/>
</clipPath>
</defs>
</svg>
